<svg id="EVA-OPENFING" xmlns="http://www.w3.org/2000/svg" viewBox="0 0 158.21 148.72">
  <defs>
    <style>
      .cls-1 {
        fill: #005190;
      }

      .cls-2 {
        fill: #86143b;
      }

      .cls-3 {
        fill: #b1a322;
      }
    </style>
  </defs>
  <title>EVA</title>
  <g id="EVA_LOGO" data-name="EVA LOGO">
    <path id="azul" class="cls-1" d="M158.2,74.68c-.46,19-8.67,36.08-23.86,50a23,23,0,0,0-2,1.78c-4.18,4.48-9.42,4.85-15.13,4.34A157.6,157.6,0,0,1,70,119.14,178,178,0,0,1,25.93,92.58,1.13,1.13,0,0,1,25.49,91a.91.91,0,0,1,.17-.23,73.26,73.26,0,0,1,8.6-11c.49-.54.75,0,1,.23A164.89,164.89,0,0,0,60.94,97.77a133.69,133.69,0,0,0,43.9,15.63c4.7.75,9.42,1.48,14.21,1a7.21,7.21,0,0,0,4.1-1.77c6.18-5.27,11.88-10.94,15.72-18.25a45.25,45.25,0,0,0-17.81-60.52,4.22,4.22,0,0,1-2.22-2.76,112.71,112.71,0,0,0-5-13.7c-.28-.62-.21-.86.49-1,4-.83,8-1.32,11.73.9a64.65,64.65,0,0,1,22.85,22.42C155.08,49.94,158.09,61.05,158.2,74.68Z" transform="translate(0.01 -0.03)"/>
    <path id="rojo" class="cls-2" d="M119.72,77.7A172.41,172.41,0,0,1,117,108c-.14.78-.45,1-1.26,1a119.43,119.43,0,0,1-13.45-1.71c-.76-.14-1-.36-.81-1.18A158.14,158.14,0,0,0,104,72c-.73-17-4.14-33.41-12.16-48.65A10.41,10.41,0,0,0,85,17.79C78.2,16,71.41,14.56,64.36,14.87c-23.69,1-43.4,18.39-46.72,40.6a8,8,0,0,1-2.54,5.08A136.55,136.55,0,0,0,4.31,72.32c-.5.6-.76.51-1.29.05C.16,69.94-.22,66.77.08,63.28a65.68,65.68,0,0,1,20.57-43A71.87,71.87,0,0,1,61.2.79,74.84,74.84,0,0,1,97.47,4.57a10.14,10.14,0,0,1,5.8,4.86,133,133,0,0,1,13.88,39.78A155.55,155.55,0,0,1,119.72,77.7Z" transform="translate(0.01 -0.03)"/>
    <path id="amarillo" class="cls-3" d="M68.31,135.16a52.67,52.67,0,0,0,19.59-3.49,1.5,1.5,0,0,1,1-.11,166,166,0,0,0,20.14,4c.77.1.66.34.32.82a16.23,16.23,0,0,1-5.29,4.84,54.5,54.5,0,0,1-26,7.48c-23.17.73-43.33-6.85-59.94-23C8.23,116.06,2.91,103.89.9,90.26a7.71,7.71,0,0,1,1.56-5.52c9.29-13.78,21-25.23,34.29-35a187.56,187.56,0,0,1,47.56-25c.87-.31,1.34-.18,1.79.6a80.86,80.86,0,0,1,5.51,12.05c.21.56-.15.62-.5.75a220.2,220.2,0,0,0-24,10.34C52.11,56.27,38.55,66,27.31,78.8a51.35,51.35,0,0,0-7.17,9.67,8.7,8.7,0,0,0-.77,6.23c2.12,9.22,5.58,17.76,12.24,24.73a50.07,50.07,0,0,0,30,15.24A45.57,45.57,0,0,0,68.31,135.16Z" transform="translate(0.01 -0.03)"/>
  </g>
</svg>
