<svg id="_OpenFING_" xmlns="http://www.w3.org/2000/svg" viewBox="0 0 2181 314">
	<defs>	
		<filter id="sombra" y="-40%" height="180%">			
			<feGaussianBlur in="SourceAlpha" result="desenfoqueSombra" stdDeviation="20"/>
			<feOffset in="desenfoqueSombra" dx="0" dy="0" result="desplazamientoSombra"/>
			<feFlood flood-color="rgba(0,0,0,0.5)" result="colorSombra"/>
			<feComposite in="colorSombra" in2="desplazamientoSombra" operator="in" result="OpenFINGsombra"/>
			<feMerge>
				<feMergeNode in="OpenFINGsombra" />
				<feMergeNode in="SourceGraphic"/>
			</feMerge>			
		</filter>		
		<style>
			.formato {
				fill:#fff;
			}
		</style>		
	</defs>
	<title>OpenFING</title>
	<g id="texto" class="formato">
		<path id="O" d="M1046.77,359c-38.06-12.33-76.86-12.48-115.21-1.39-44.47,12.85-74.92,41.61-89.78,85.53-13.2,39-13.52,78.94-2.33,118.47,12.88,45.52,42.12,76.58,87.23,91.36,37.9,12.43,76.55,12.49,114.85,1.79,40.67-11.36,69.76-36.78,86.72-75.6,10.13-23.17,13.33-47.72,13.52-72.79-.08-18.43-1.76-36.7-6.89-54.47C1121.56,405.72,1092.7,373.83,1046.77,359Zm14.32,159.76c-1,17-4,33.46-11.73,48.79-14.94,29.72-40.46,40.63-70.6,37.82-32.9-3.06-51-23.43-60.45-53.25-4.76-15-6-30.56-6.09-47.77.21-18.32,2.25-37.87,10.51-56.23,10-22.34,26.35-37.29,51.15-40.81,36.65-5.21,66.38,9.42,80.09,48.24C1061.2,476,1062.33,497.24,1061.09,518.71Z" transform="translate(-831.44 -349.46)"/>
		<path id="P" d="M1344.88,416.65a131.35,131.35,0,0,0-42-6.57l-106.1-.07-3.07.21V655.83h63.71V570.48c15.26,0,30.14.47,45-.16a194.22,194.22,0,0,0,32.65-3.8c21.39-4.62,39.39-15,50.84-34.51,8.51-14.5,10.66-30.48,10-47C1394.61,451.42,1376.71,427.49,1344.88,416.65ZM1316,518.93a38.87,38.87,0,0,1-16.2,5.1c-14,.71-28.13.23-42.38.23v-68c.2-.15.39-.43.58-.42,14.6.19,29.26-.3,43.8.8,14.87,1.13,25.12,10.76,28,24.13C1333.33,497.1,1328.24,512.17,1316,518.93Z" transform="translate(-831.44 -349.46)"/>
		<polygon id="E" points="673.54 202.24 774.29 202.24 774.29 154.19 673.54 154.19 673.54 108.39 780.37 108.39 780.37 60.71 609.83 60.71 609.83 306.36 784.08 306.36 784.08 258.41 673.54 258.41 673.54 202.24"/>
		
		<polygon id="N" points="1760.72 211.89 1651.67 5.71 1565.33 5.71 1565.33 306.6 1638.65 306.6 1638.65 100.43 1747.68 306.6 1834.04 306.6 1834.04 5.98 1760.72 5.98 1760.72 211.89"/>
		<polygon id="F" points="1129.5 306.36 1206.7 306.36 1206.7 178.95 1330.84 178.95 1330.84 120.42 1206.7 120.42 1206.7 64.13 1338.3 64.13 1338.3 6.08 1129.5 6.08 1129.5 306.36"/>
		<rect id="I" x="1411.57" y="5.96" width="76.79" height="300.28"/>
		<polygon id="n" points="1000.22 229.11 910.57 60.54 840.02 60.54 840.02 306.54 899.9 306.54 899.9 137.97 989.55 306.54 1060.09 306.54 1060.09 60.54 1000.22 60.54 1000.22 229.11"/>		
		<path id="G" d="M2891.73,540.65h47l.15,53.63c.08,4.47-1.54,6-5.41,7a133.8,133.8,0,0,1-56.47,2.83c-32.21-5.12-54.95-22.61-65.6-53.75-9.78-28.6-9.65-57.78-.63-86.58,6.69-21.33,20.27-37.36,40.5-47.36,14.27-7.06,29.58-9.73,45.33-10.13,33.23-.85,64.23,7.68,93.65,22.66,3.42,1.74,6.79,3.57,10.73,5.65V372.28l-7.1-2.94c-28.81-12-59-17.86-90-19.09-30.08-1.19-59.74,1.35-88,12.51-42,16.58-70.87,45.88-84.1,89.47-9.37,30.87-9.89,62.34-3.57,93.8,7.69,38.29,27.73,68.63,60.57,90.14,23.56,15.42,49.86,22.78,77.63,24.9,49.68,3.81,97.27-4.6,142.54-25.67,2.53-1.18,3.39-2.48,3.39-5.28V488.94H2891.73Z" transform="translate(-831.44 -349.46)"/>
	</g>
</svg>
